HIERARCHY
ROOT Hips
{
	OFFSET 0.00000 0.00000 0.00000
	CHANNELS 6 Xposition Yposition Zposition Yrotation Zrotation Xrotation 
	JOINT Lumbar
	{
		OFFSET 0 0 0
		CHANNELS 3 Zrotation Xrotation Yrotation
		JOINT Neck
		{
			OFFSET 0.00 0.2701 0.00
			CHANNELS 3 Zrotation Xrotation Yrotation
			End Site
			{
				OFFSET 0.00 0.1379 0.00
			}
		}
		JOINT RightShoulder
		{
			OFFSET 0.0119 0.2289 0.1181
			CHANNELS 3 Zrotation Xrotation Yrotation
			JOINT RightElbow
			{
				OFFSET 0.00 -0.1475 0.00
				CHANNELS 2 Zrotation Yrotation
				JOINT RightWrist
				{
					OFFSET 0.00 -0.1605 0.00
					CHANNELS 2 Zrotation Xrotation
					End Site
					{
						OFFSET 0.0040 -0.1068 0.0006
					}
				}
			}
		}
		JOINT LeftShoulder
		{
			OFFSET 0.0119 0.2289 -0.1181
			CHANNELS 3 Zrotation Xrotation Yrotation
			JOINT LeftElbow
			{
				OFFSET 0.00 -0.1475 0.00
				CHANNELS 2 Zrotation Yrotation
				JOINT LeftWrist
				{
					OFFSET 0.00 -0.1605 0.00
					CHANNELS 2 Zrotation Xrotation
					End Site
					{
						OFFSET 0.0040 -0.1068 -0.0006
					}
				}
			}
		}
	}
	JOINT RightHip
	{
		OFFSET 0.0316 -0.0424 0.0458
		CHANNELS 3 Zrotation Xrotation Yrotation
		JOINT RightKnee
		{
			OFFSET 0.00 -0.2438 0.00
			CHANNELS 1 Zrotation
			JOINT RightAnkle
			{
				OFFSET 0.00 -0.2449 0.00
				CHANNELS 3 Zrotation Xrotation Yrotation
				End Site
				{
					OFFSET 0.1237 -0.0542 0.0051
				}
			}
		}
	}
	JOINT LeftHip
	{
		OFFSET 0.0316 -0.0424 -0.0458
		CHANNELS 3 Zrotation Xrotation Yrotation
		JOINT LeftKnee
		{
			OFFSET 0.00 -0.2438 0.00
			CHANNELS 1 Zrotation
			JOINT LeftAnkle
			{
				OFFSET 0.00 -0.2449 0.00
				CHANNELS 3 Zrotation Xrotation Yrotation
				End Site
				{
					OFFSET 0.1237 -0.0542 -0.0051
				}
			}
		}
	}
}
MOTION
Frames: 27
Frame Time: 0.02
-0.50309 -0.11944 0.20946 18.39362 -29.17062 -3.9628 43.00261 -0.40563 9.81453 -5.69794 9.0588 -2.11994 75.87383 -19.98909 41.30465 50.71033 71.24231 21.93661 -4.65792 7.57522 26.33053 -21.2188 115.38543 -76.71438 -12.20916 1.16335 63.72176 -17.92719 4.14285 -24.61697 -10.08955 -1.86881 -3.30205 55.19299 14.83337 3.20438 -35.19518 -7.93578 2.69512 3.61529
-0.49494 -0.11934 0.21536 18.73259 -29.20439 -3.97852 43.2143 -0.35353 9.65139 -5.99369 9.13983 -2.11994 81.39531 -20.36646 43.72117 44.43817 67.92808 23.47662 -5.14761 6.51866 25.47892 -21.17329 115.47992 -74.22216 -12.81967 0.61063 63.98227 -18.03118 4.48647 -25.77428 -9.98003 -1.77421 -3.25145 54.88776 15.46545 2.29768 -35.26312 -7.99721 2.75668 3.64648
-0.48592 -0.11915 0.22198 19.18228 -29.27328 -4.02979 43.48962 -0.24801 9.32796 -6.3813 9.1053 -2.11994 87.47258 -21.37653 46.95702 38.13836 64.37489 23.88137 -5.82888 5.23666 24.64874 -20.92767 115.62981 -70.83018 -13.7271 -0.23696 64.2557 -17.96929 4.60039 -27.37249 -9.78074 -1.66082 -3.18817 54.587 16.19902 1.3656 -35.28284 -8.07949 2.8021 3.67005
-0.47732 -0.11895 0.22831 19.58468 -29.33777 -4.05915 43.73724 -0.16141 9.06659 -6.72347 9.10694 -2.11994 93.23753 -22.10449 49.70707 31.99001 61.05334 24.72789 -6.40733 4.06221 23.81622 -20.76931 115.74231 -68.03341 -14.44598 -0.90369 64.51741 -17.97461 4.78429 -28.74614 -9.61996 -1.56136 -3.13318 54.29913 16.87808 0.43 -35.31454 -8.15931 2.8535 3.69692
-0.46858 -0.11894 0.23454 19.97753 -29.3531 -4.11267 43.98252 -0.09745 8.84925 -7.08737 9.17895 -2.11994 99.23566 -22.78492 52.8832 25.23912 57.17469 25.91914 -7.04931 2.83678 22.93803 -20.6096 115.9122 -64.47003 -15.38437 -1.75823 64.80571 -18.01433 5.11325 -30.24182 -9.46729 -1.43895 -3.06735 53.9462 17.59368 -0.4572 -35.3898 -8.20986 2.91106 3.72475
-0.45996 -0.11852 0.24112 20.41614 -29.47939 -4.12381 44.24617 0.02594 8.50109 -7.424 9.07472 -2.11994 104.87898 -23.72478 55.38808 19.74598 54.43499 26.10396 -7.60529 1.68833 22.17146 -20.42006 115.97018 -62.27149 -15.9409 -2.29765 65.04089 -17.94327 5.0892 -31.57795 -9.27788 -1.35985 -3.02113 53.73138 18.25591 -1.43708 -35.36165 -8.32613 2.95174 3.74863
-0.45178 -0.117 0.24857 20.94367 -29.90222 -4.01672 44.55145 0.30592 7.85125 -7.68116 8.5333 -2.11994 109.50527 -25.22103 55.82111 17.69733 54.62791 23.87477 -7.88066 0.65366 21.63742 -20.09458 115.74371 -64.19533 -15.3441 -1.86661 65.12683 -17.60416 4.10043 -32.39549 -8.99812 -1.40611 -3.03235 53.88769 18.75696 -2.76941 -35.06744 -8.61954 2.95055 3.76405
-0.44379 -0.11505 0.25633 21.51455 -30.43552 -3.8649 44.87136 0.64297 7.07237 -7.90377 7.81488 -2.11994 113.73742 -26.96293 55.56023 16.9249 56.01761 20.65708 -8.06256 -0.26037 21.23032 -19.76673 115.39375 -67.49911 -14.35908 -1.11404 65.15818 -17.15975 2.77147 -33.02897 -8.6866 -1.49636 -3.06369 54.1846 19.19841 -4.17408 -34.66944 -8.97805 2.93282 3.77567
-0.43579 -0.11328 0.26391 22.072 -30.91945 -3.72821 45.18017 0.95023 6.33921 -8.1294 7.16332 -2.11994 118.09393 -28.59656 55.63703 15.59177 57.05192 17.82503 -8.2854 -1.13239 20.81105 -19.50758 115.07694 -70.08077 -13.56861 -0.52888 65.21433 -16.76538 1.62908 -33.72506 -8.3968 -1.56582 -3.08572 54.42347 19.66027 -5.47756 -34.31357 -9.30645 2.92201 3.78858
-0.42741 -0.11159 0.2717 22.60775 -31.40216 -3.61293 45.51057 1.27535 5.65335 -8.41135 6.56396 -2.11994 122.71508 -30.22922 55.65027 14.17155 57.32372 15.20217 -8.52174 -2.44012 20.19581 -18.95363 114.86535 -73.02665 -12.70864 0.1338 65.27238 -16.35618 0.34746 -34.52681 -8.07306 -1.63824 -3.10811 54.63822 20.1551 -7.07073 -33.97657 -9.63845 2.91282 3.80292
-0.41989 -0.10963 0.27909 23.19647 -31.91186 -3.44417 45.79794 1.57649 4.84246 -8.56721 5.81674 -2.11994 126.66601 -31.92463 55.61679 13.24181 59.41856 11.94878 -8.70477 -2.78521 20.02418 -19.01852 114.39669 -75.56033 -11.90151 0.71795 65.31161 -15.95483 -0.72656 -35.05756 -7.81367 -1.71486 -3.13457 54.93593 20.56424 -8.07699 -33.57718 -9.97731 2.89694 3.81365
-0.41461 -0.10703 0.28534 23.92851 -32.47984 -3.11962 45.96898 1.79368 3.70227 -8.37772 4.69338 -2.11994 128.98993 -33.64144 55.63953 13.31188 66.70874 6.98295 -8.7647 -0.70071 20.99649 -20.76819 113.3064 -76.56471 -11.2997 0.98405 65.32674 -15.60291 -1.10285 -34.89417 -7.73986 -1.79524 -3.16866 55.433 20.76366 -7.44883 -33.02403 -10.32551 2.863 3.81367
-0.4102 -0.10419 0.29115 24.70975 -33.06875 -2.74619 46.09499 1.98488 2.44508 -8.06345 3.43032 -2.11994 130.60798 -35.42714 55.62187 13.84235 75.70895 1.46169 -8.77146 2.38595 22.41783 -23.14421 111.94471 -77.1229 -10.77027 1.1657 65.32199 -15.26278 -1.26424 -34.46064 -7.7323 -1.87791 -3.20599 56.00727 20.87589 -6.22789 -32.4139 -10.67664 2.82345 3.8104
-0.40544 -0.10149 0.29713 25.46364 -33.64117 -2.40747 46.23706 2.19056 1.25172 -7.8091 2.23872 -2.11994 132.48649 -37.23811 55.62185 14.18653 83.62948 -3.65926 -8.80275 5.1466 23.66913 -25.25333 110.67636 -77.92269 -10.22879 1.40222 65.31682 -14.91708 -1.55095 -34.14224 -7.69481 -1.95766 -3.24106 56.54381 21.01966 -5.27405 -31.83372 -11.0227 2.78921 3.80991
-0.40049 -0.09865 0.30327 26.24267 -34.24795 -2.01444 46.39737 2.38827 0.00615 -7.53864 1.00589 -2.11994 134.68223 -38.81839 55.64413 14.46714 92.86813 -9.43801 -8.83573 7.3683 24.7905 -27.29605 109.55434 -78.59889 -9.58342 1.58011 65.34986 -14.56942 -1.73619 -33.84906 -7.65552 -2.04673 -3.28011 57.09868 21.19629 -4.32734 -31.22989 -11.38857 2.7436 3.80438
-0.39614 -0.09604 0.30894 26.9773 -34.78538 -1.7235 46.50992 2.59405 -1.15347 -7.27431 -0.17025 -2.11994 135.95945 -40.89323 55.56542 14.98695 99.75285 -13.96775 -8.84578 10.94473 26.27585 -29.61489 108.03466 -79.41779 -9.17982 1.85598 65.29905 -14.22889 -2.07316 -33.44267 -7.636 -2.11654 -3.31145 57.62903 21.28361 -3.23045 -30.66676 -11.71082 2.71947 3.80796
-0.39324 -0.09403 0.31346 27.60346 -35.13651 -1.72655 46.49176 2.84162 -2.07337 -7.04162 -1.16812 -2.11994 135.70289 -44.28991 55.68889 15.92947 99.7082 -14.88479 -8.87632 18.04656 28.75883 -32.63619 105.75073 -80.64673 -9.40005 2.41927 65.02373 -13.91598 -2.91481 -32.78029 -7.65644 -2.13092 -3.32002 58.09605 21.15323 -1.80776 -30.20055 -11.93053 2.76524 3.8432
-0.39092 -0.09225 0.3175 28.17777 -35.41445 -1.83407 46.42886 3.0953 -2.89643 -6.82211 -2.10032 -2.11994 134.40435 -48.17372 55.63325 17.11437 97.23499 -14.5249 -8.87457 26.46503 31.5749 -35.89513 103.03413 -82.03834 -9.86743 3.08166 64.66452 -13.60859 -3.90835 -32.01604 -7.6944 -2.12591 -3.32073 58.53038 20.93473 -0.26409 -29.78379 -12.10245 2.83111 3.88667
-0.38833 -0.09039 0.32171 28.75885 -35.71881 -1.89412 46.3928 3.33747 -3.74692 -6.60762 -3.05425 -2.11994 133.0265 -51.86601 55.3468 18.26317 95.87049 -14.76383 -8.83946 34.2683 34.16809 -38.98575 100.33132 -83.41841 -10.24128 3.7016 64.34261 -13.29188 -4.80928 -31.30543 -7.72345 -2.13068 -3.32538 58.96408 20.75199 1.18729 -29.36357 -12.28367 2.8819 3.9227
-0.38581 -0.08844 0.32611 29.41398 -36.05363 -1.95307 46.32765 3.6163 -4.67464 -6.34393 -4.04978 -2.11994 133.91231 -55.48381 56.35316 19.11378 94.53127 -14.94817 -8.99818 42.20248 37.07055 -42.35804 98.36011 -84.54862 -10.53998 4.31432 64.02364 -13.00338 -5.80375 -30.55395 -7.75865 -2.13156 -3.32866 59.4672 20.58468 2.81522 -28.85897 -12.51737 2.95788 3.97434
-0.38328 -0.08673 0.32999 29.90019 -36.30636 -2.03893 46.31309 3.81972 -5.41311 -6.18538 -4.93828 -2.11994 129.90214 -59.31007 54.6543 20.63993 92.5577 -14.93118 -8.75505 50.13255 39.41255 -45.18547 94.8045 -86.20813 -11.05064 4.95858 63.67866 -12.65838 -6.64064 -29.86737 -7.7845 -2.13581 -3.33283 59.81539 20.36495 4.09841 -28.54522 -12.63046 2.9859 3.99533
-0.38058 -0.0856 0.33269 29.9469 -36.35851 -2.18145 46.44983 3.82081 -5.68447 -6.33349 -5.57038 -2.11994 112.148 -64.12283 45.28553 23.9367 89.26371 -14.70591 -7.33448 57.97208 40.03086 -46.48815 86.66064 -89.59624 -12.10844 5.73595 63.28477 -12.14727 -7.01982 -29.38296 -7.77885 -2.15482 -3.3416 59.75649 20.02697 4.37998 -28.72321 -12.42143 2.88012 3.93122
-0.37786 -0.08471 0.33488 29.8225 -36.32908 -2.34649 46.6396 3.74478 -5.76195 -6.58457 -6.09137 -2.11994 89.60356 -69.03257 33.25334 27.90476 85.43537 -14.31418 -5.52496 65.69891 40.08746 -47.21451 77.00637 -93.45842 -13.3676 6.5296 62.86754 -11.58097 -7.23392 -28.96927 -7.76313 -2.17768 -3.35145 59.54026 19.63902 4.31114 -29.09519 -12.09304 2.7252 3.83596
-0.37518 -0.08372 0.33724 29.76684 -36.33131 -2.49597 46.80429 3.69899 -5.90702 -6.77545 -6.64816 -2.11994 69.56029 -73.54564 22.59153 31.59182 81.95163 -13.97065 -3.9435 73.32909 40.46298 -48.18875 68.24377 -96.90171 -14.51829 7.26924 62.45918 -11.04524 -7.51455 -28.52567 -7.75258 -2.19838 -3.36068 59.387 19.27092 4.41297 -29.39508 -11.81944 2.58992 3.7537
-0.3724 -0.08269 0.33983 29.74747 -36.35323 -2.6705 46.9696 3.67267 -6.13633 -7.02061 -7.26734 -2.11994 48.07929 -79.55053 11.21878 35.20396 77.96063 -13.69236 -2.14453 81.68232 40.58814 -49.27003 58.56558 -101.20039 -15.74496 8.20627 62.05402 -10.48537 -7.83444 -28.0683 -7.74014 -2.22042 -3.3703 59.26765 18.91089 4.47138 -29.63283 -11.54083 2.46487 3.67566
-0.36983 -0.0818 0.34183 29.61256 -36.31652 -2.79816 47.14919 3.5887 -6.14428 -7.18037 -7.72784 -2.11994 28.5094 -82.48222 0.73341 39.10587 74.9232 -13.26334 -0.70635 88.42005 41.0889 -49.9393 50.48377 -103.83916 -16.86336 8.73827 61.63922 -9.96407 -8.03359 -27.65855 -7.72905 -2.24051 -3.3793 59.04197 18.52442 4.53508 -30.0404 -11.24624 2.30885 3.5825
-0.36775 -0.08121 0.34242 29.20119 -36.13086 -2.77893 47.33498 3.35292 -5.59874 -7.05066 -7.80486 -2.11994 15.04843 -76.75212 -6.96592 43.83642 74.72462 -12.39176 -0.36259 91.27908 42.82326 -50.03959 46.8161 -101.68087 -17.57889 8.11655 61.19179 -9.55053 -7.91919 -27.35771 -7.72353 -2.2571 -3.38765 58.55052 18.06845 4.69999 -30.91274 -10.92555 2.05938 3.4449
